<?xml version="1.0" encoding="UTF-8" standalone="no"?>
<!-- Created with Inkscape (http://www.inkscape.org/) -->

<svg
   xmlns:dc="http://purl.org/dc/elements/1.1/"
   xmlns:cc="http://creativecommons.org/ns#"
   xmlns:rdf="http://www.w3.org/1999/02/22-rdf-syntax-ns#"
   xmlns:svg="http://www.w3.org/2000/svg"
   xmlns="http://www.w3.org/2000/svg"
   xmlns:sodipodi="http://sodipodi.sourceforge.net/DTD/sodipodi-0.dtd"
   xmlns:inkscape="http://www.inkscape.org/namespaces/inkscape"
   width="744.09448819"
   height="1052.3622047"
   id="svg2"
   version="1.1"
   inkscape:version="0.48.4 r9939"
   sodipodi:docname="New document 1">
  <defs
     id="defs4" />
  <sodipodi:namedview
     id="base"
     pagecolor="#ffffff"
     bordercolor="#666666"
     borderopacity="1.0"
     inkscape:pageopacity="0.0"
     inkscape:pageshadow="2"
     inkscape:zoom="0.84765625"
     inkscape:cx="377.35945"
     inkscape:cy="520"
     inkscape:document-units="px"
     inkscape:current-layer="layer1"
     showgrid="false"
     inkscape:window-width="798"
     inkscape:window-height="862"
     inkscape:window-x="0"
     inkscape:window-y="22"
     inkscape:window-maximized="0" />
  <metadata
     id="metadata7">
    <rdf:RDF>
      <cc:Work
         rdf:about="">
        <dc:format>image/svg+xml</dc:format>
        <dc:type
           rdf:resource="http://purl.org/dc/dcmitype/StillImage" />
        <dc:title></dc:title>
      </cc:Work>
    </rdf:RDF>
  </metadata>
  <g
     inkscape:label="Layer 1"
     inkscape:groupmode="layer"
     id="layer1">
    <path
       style="fill:none;stroke:#000000;stroke-width:1px;stroke-linecap:butt;stroke-linejoin:miter;stroke-opacity:1"
       d="m 176.95853,225.37601 0,142.74654 189.93548,0"
       id="path2985"
       inkscape:connector-curvature="0" />
    <path
       style="fill:none;stroke:#000000;stroke-width:1px;stroke-linecap:butt;stroke-linejoin:miter;stroke-opacity:1"
       d="m 178.13825,260.76771 104.99539,0 c 4.00642,-3.34959 4.18024,-8.99207 7.07834,-12.97696 2.13242,-2.93207 4.51472,-5.69444 7.07834,-8.25806 1.92776,-1.92775 5.91358,-4.22398 8.25807,-5.89862 1.59996,-1.14283 3.32857,-2.14885 4.71889,-3.53917 0.27806,-0.27806 -0.27806,-0.90166 0,-1.17972 0.27806,-0.27807 0.78648,0 1.17972,0 1.17973,0 2.39468,-0.28613 3.53918,0 0.53952,0.13488 0.6823,0.93101 1.17972,1.17972 0.35172,0.17586 0.96159,-0.32719 1.17972,0 2.45687,3.6853 0.32204,3.21876 1.17973,7.07834 0.53952,2.42785 1.81992,4.65049 2.35944,7.07834 1.96621,8.84793 -1.3108,-0.6554 0,5.89862 0.24388,1.21939 0.93585,2.31978 1.17973,3.53917 0.15424,0.77121 -0.24871,1.61333 0,2.35945 0.17586,0.52759 1.07065,0.63439 1.17972,1.17972 0,1.57297 0,3.14593 0,4.7189 0.39324,0.39324 1.00386,0.65213 1.17972,1.17972 0.35392,1.06175 -0.35391,2.47742 0,3.53917 0.27807,0.83419 0.90166,1.52526 1.17973,2.35945 0.12435,0.37306 -0.27807,0.90166 0,1.17972 0.27806,0.27806 1.00386,-0.35173 1.17972,0 0.35173,0.70345 -0.35173,1.656 0,2.35945 0.17586,0.35172 0.85253,-0.21813 1.17972,0 2.33163,1.55441 4.74672,5.52392 7.07834,7.07834 0.3272,0.21813 0.90166,-0.27806 1.17973,0 1.43688,1.43688 0.55261,2.63575 2.35945,3.53917 0.35172,0.17586 0.78648,0 1.17972,0 3.93241,0 7.86482,0 11.79723,0 4.15414,0 5.12487,-0.29971 10.61752,-2.35945 0.52071,-0.19527 0.93101,-0.68231 1.17972,-1.17972 0.35172,-0.70345 -0.15424,-1.58824 0,-2.35945 0.37416,-1.87079 1.51616,-6.29039 2.35945,-8.25806 2.17312,-5.07062 0.6818,-4.7189 3.53917,-4.7189 0.39324,0 0.90166,0.27807 1.17972,0 0.27806,-0.27806 -0.0954,-0.79822 0,-1.17972 0.78648,-2.75269 1.57296,-5.50538 2.35945,-8.25806 0,-0.39325 -0.0954,-0.79823 0,-1.17973 0.78648,-2.75269 1.57296,-5.50537 2.35944,-8.25806 0.39324,-0.78649 0.90166,-1.52526 1.17973,-2.35945 0.12435,-0.37306 -0.17587,-0.828 0,-1.17972 0.2487,-0.49742 0.78648,-0.78649 1.17972,-1.17973 0.78648,-0.78648 1.74248,-1.43399 2.35945,-2.35944 0.21813,-0.3272 -0.3146,-0.94378 0,-1.17973 1.4069,-1.05517 3.34563,-1.26084 4.71889,-2.35944 0.68663,-0.54931 0.55796,-1.73768 1.17973,-2.35945 0.62176,-0.62177 1.62781,-0.69197 2.35944,-1.17972 0.46273,-0.30849 0.68231,-0.93102 1.17973,-1.17973 0.35172,-0.17586 0.78648,0 1.17972,0 2.75823,0 -0.4171,-0.27806 3.53917,2.35945 0.65439,0.43626 1.59169,-0.17061 2.35945,0 3.16553,0.70345 6.29186,1.57296 9.43778,2.35945 1.57297,0.39324 3.2687,0.45462 4.7189,1.17972 0.99483,0.49741 1.46964,1.69209 2.35945,2.35945 1.1495,0.86213 2.8175,0.91611 3.53917,2.35944 0.35172,0.70345 -0.41684,1.69251 0,2.35945 1.79287,2.8686 4.10574,5.38947 5.89861,8.25806 0.20842,0.33347 0,0.78649 0,1.17973 0.39324,0.78648 0.69197,1.62781 1.17973,2.35945 0.30848,0.46272 0.93101,0.6823 1.17972,1.17972 0.17586,0.35172 -0.0556,0.79043 0,1.17972 0.0445,0.31173 1.11975,8.96458 2.35945,10.61751 0.52759,0.70345 1.57296,0.78649 2.35944,1.17973 0.78649,1.17972 1.72537,2.271 2.35945,3.53917 0.81363,1.62726 -1.42871,1.05523 1.17973,2.35944 0.44571,0.22286 5.59745,0 7.07834,0 0.65625,0 4.6733,0.24507 5.89861,0 1.58989,-0.31797 3.12901,-0.86174 4.7189,-1.17972 0.77121,-0.15424 1.65599,0.35173 2.35944,0 1.26817,-0.63408 2.22273,-1.83287 3.53918,-2.35945 0.73023,-0.29209 1.65599,0.35173 2.35944,0 0.35173,-0.17586 -0.27806,-0.90166 0,-1.17972 1.00257,-1.00257 2.35945,-1.57296 3.53917,-2.35945 2.35945,-1.9662 4.9066,-3.72687 7.07834,-5.89861 0.55613,-0.55613 -0.35172,-1.656 0,-2.35945 0.24871,-0.49742 1.12938,-0.62588 1.17973,-1.17972 3.22715,-35.49873 -2.48024,-3.17679 1.17972,-14.15669 0.15302,-0.45905 -0.18308,-3.35609 0,-3.53917 0.62177,-0.62177 1.57297,-0.78648 2.35945,-1.17972"
       id="path2989"
       inkscape:connector-curvature="0" />
    <text
       xml:space="preserve"
       style="font-size:40px;font-style:normal;font-weight:normal;line-height:125%;letter-spacing:0px;word-spacing:0px;fill:#000000;fill-opacity:1;stroke:none;font-family:Sans"
       x="158.08295"
       y="270.20551"
       id="text2991"
       sodipodi:linespacing="125%"><tspan
         sodipodi:role="line"
         id="tspan2993"
         x="158.08295"
         y="270.20551">l</tspan></text>
  </g>
</svg>
